<svg xmlns="http://www.w3.org/2000/svg" width="146" height="28" viewBox="0 0 146 28">
  <defs>
    <style>
      .cls-1 {
        fill: #f2f2f2;
        fill-rule: evenodd;
      }
    </style>
  </defs>
  <path id="A-80" class="cls-1" d="M25.172,7.866l5.179,9.078H20.13ZM3.923,26.436H14.872l2.481-4.49H32.989l2.481,4.49H46.3L32.615,1.368H17.531ZM49.255,9.678H66.624v8.094H49.255V9.678Zm22.075,5.356a4.953,4.953,0,0,0-1.753,3.86,5.784,5.784,0,0,0,1.851,4.195,11.588,11.588,0,0,0,5.317,2.777,40.693,40.693,0,0,0,9.925.925,48.532,48.532,0,0,0,6.489-.414,20.509,20.509,0,0,0,5.15-1.29,9.652,9.652,0,0,0,3.555-2.54,5.362,5.362,0,0,0,1.467-3.614,5.005,5.005,0,0,0-1.7-3.673A9.488,9.488,0,0,0,97.6,12.947a8.552,8.552,0,0,0,2.738-1.694,4.493,4.493,0,0,0,1.673-3.328q0-3.052-4.017-4.972T85.785,1.033a27.231,27.231,0,0,0-9.964,1.516q-5,2.028-5,5.317a4.587,4.587,0,0,0,1.772,3.545,7.89,7.89,0,0,0,2.7,1.536A9.1,9.1,0,0,0,71.331,15.034Zm11.008-8.31a10.86,10.86,0,0,1,4.017-.61,10.5,10.5,0,0,1,3.988.63q1.506,0.63,1.507,1.575,0,0.906-1.447,1.506a10.089,10.089,0,0,1-3.811.6,11.71,11.71,0,0,1-4.224-.61q-1.526-.61-1.526-1.556Q80.842,7.335,82.339,6.724Zm-1.024,10a14.8,14.8,0,0,1,4.982-.748,15.429,15.429,0,0,1,5.13.768q2.176,0.768,2.176,1.91,0,1.122-2.156,1.9a14.483,14.483,0,0,1-4.933.778,15.382,15.382,0,0,1-5.1-.768q-2.186-.768-2.186-1.89Q79.227,17.476,81.315,16.728Zm25.816,2.718a9.665,9.665,0,0,0,2.364,3.978,13.107,13.107,0,0,0,5.287,3.092,27.707,27.707,0,0,0,8.359,1.044q9.235,0,13.086-3.318t3.85-10.427a16.276,16.276,0,0,0-1.162-6.085A9.732,9.732,0,0,0,137.32,5a10.9,10.9,0,0,0-2.7-2.215,15.5,15.5,0,0,0-4.381-1.694,29.4,29.4,0,0,0-6.784-.65q-8.607,0-12.889,2.993t-4.283,10.457A17.366,17.366,0,0,0,107.131,19.445ZM119.311,7.59a4.268,4.268,0,0,1,3.771-1.654A4.536,4.536,0,0,1,126.9,7.561q1.26,1.625,1.26,6.548a15.493,15.493,0,0,1-.561,4.913,4.163,4.163,0,0,1-1.713,2.225,5.2,5.2,0,0,1-2.748.7,4.394,4.394,0,0,1-3.712-1.654q-1.269-1.654-1.27-6.38Q118.159,9.245,119.311,7.59Z"/>
</svg>
